<svg xmlns="http://www.w3.org/2000/svg" viewBox="0 0 64 64"><defs><style>.cls-1{fill:#000842;}.cls-2{fill:#fff;}.cls-3{fill:#f6ae2d;}</style></defs><title>Zeichenfläche 1</title><g id="Ebene_1" data-name="Ebene 1"><rect class="cls-1" width="64" height="64"/></g><g id="servicebw"><path class="cls-2" d="M16.86,26.57A9.14,9.14,0,1,1,26,35.71,9.14,9.14,0,0,1,16.86,26.57ZM35.14,38h-3.9a12.57,12.57,0,0,1-10.48,0h-3.9A6.86,6.86,0,0,0,10,44.86v7.43A1.72,1.72,0,0,0,11.71,54H40.29A1.72,1.72,0,0,0,42,52.29V44.86A6.86,6.86,0,0,0,35.14,38Z"/><path class="cls-3" d="M44.17,32.86h1.17V24.39H44.17A1.17,1.17,0,0,1,43,23.22v-2.8a1.17,1.17,0,0,1,1.17-1.17h6.56a1.17,1.17,0,0,1,1.18,1.17V32.86h1.17A1.17,1.17,0,0,1,54.25,34v2.8A1.17,1.17,0,0,1,53.08,38H44.17A1.17,1.17,0,0,1,43,36.83V34A1.17,1.17,0,0,1,44.17,32.86ZM48.62,8a4.22,4.22,0,1,0,4.22,4.22A4.22,4.22,0,0,0,48.62,8Z"/></g></svg>
