<?xml version="1.0" encoding="UTF-8"?>
<svg xmlns="http://www.w3.org/2000/svg" viewBox="0 0 150 150">
  <defs>
    <style>
      .cls-1 {
        fill: #fff;
      }

      .cls-1, .cls-2, .cls-3 {
        stroke-width: 0px;
      }

      .cls-2 {
        fill: #f6ae2d;
      }

      .cls-3 {
        fill: #000842;
      }
    </style>
  </defs>
  <g id="Ebene_10" data-name="Ebene 10">
    <rect class="cls-3" width="150" height="150"/>
  </g>
  <g id="suche">
    <g>
      <path class="cls-1" d="M132.73,138.58c-1.6,0-2.96-.55-4.05-1.64l-24.11-24.44-1.05.84c-9.82,7.83-22.26,12.14-35.02,12.14-15.26,0-29.59-5.92-40.33-16.66-10.74-10.74-16.66-25.07-16.66-40.33s5.92-29.59,16.66-40.33c10.74-10.74,25.07-16.66,40.33-16.66s29.58,5.92,40.33,16.66c20.32,20.32,22.26,52.79,4.51,75.52l-.82,1.05,24.28,24.11c1.13,1.13,1.74,2.62,1.71,4.19-.02,1.5-.62,2.88-1.69,3.88-.84.74-2.26,1.67-4.08,1.67ZM68.49,22.88c-12.15,0-23.59,4.75-32.22,13.38-8.63,8.63-13.38,20.07-13.38,32.22s4.75,23.59,13.38,32.22c8.63,8.63,20.07,13.38,32.22,13.38s23.59-4.75,32.22-13.38,13.38-20.07,13.38-32.22-4.75-23.59-13.38-32.22c-8.63-8.63-20.07-13.38-32.22-13.38Z"/>
      <path class="cls-2" d="M68.49,13c14.86,0,28.81,5.76,39.27,16.22,19.79,19.79,21.68,51.4,4.39,73.54l-1.64,2.1,1.89,1.88,23.32,23.16c.84.84,1.29,1.95,1.28,3.11-.02,1.07-.44,2.06-1.19,2.78-.68.6-1.76,1.29-3.08,1.29-1.22,0-2.17-.38-2.98-1.18l-23.17-23.49-1.9-1.92-2.11,1.68c-9.56,7.62-21.66,11.81-34.09,11.81-14.86,0-28.81-5.76-39.27-16.22-10.46-10.46-16.22-24.41-16.22-39.27s5.76-28.81,16.22-39.27c10.46-10.46,24.41-16.22,39.27-16.22M68.49,115.59c12.55,0,24.37-4.91,33.28-13.82,8.91-8.91,13.82-20.73,13.82-33.28s-4.91-24.37-13.82-33.28c-8.91-8.91-20.73-13.82-33.28-13.82s-24.37,4.91-33.28,13.82c-8.91,8.91-13.82,20.73-13.82,33.28s4.91,24.37,13.82,33.28c8.91,8.91,20.73,13.82,33.28,13.82M68.49,10c-15.66,0-30.36,6.07-41.39,17.1-11.03,11.03-17.1,25.73-17.1,41.39s6.07,30.36,17.1,41.39c11.03,11.03,25.73,17.1,41.39,17.1,12.94,0,25.73-4.31,35.96-12.46l23.17,23.49c1.44,1.44,3.2,2.08,5.11,2.08s3.68-.8,5.11-2.08c2.88-2.72,2.88-7.35,0-10.23h0s-23.33-23.17-23.33-23.17c18.22-23.33,16.3-56.57-4.63-77.5-11.03-11.03-25.73-17.1-41.39-17.1h0ZM68.49,112.59c-11.67,0-22.85-4.63-31.16-12.94-8.31-8.31-12.94-19.5-12.94-31.16s4.63-22.85,12.94-31.16c8.31-8.31,19.5-12.94,31.16-12.94s22.85,4.63,31.16,12.94c8.31,8.31,12.94,19.34,12.94,31.16s-4.63,22.85-12.94,31.16c-8.31,8.31-19.5,12.94-31.16,12.94h0Z"/>
    </g>
  </g>
</svg>