<?xml version="1.0" encoding="UTF-8"?>
<svg xmlns="http://www.w3.org/2000/svg" viewBox="0 0 150 150">
  <defs>
    <style>
      .cls-1 {
        fill: #fff;
      }

      .cls-1, .cls-2, .cls-3 {
        stroke-width: 0px;
      }

      .cls-2 {
        fill: #f6ae2d;
      }

      .cls-3 {
        fill: #000842;
      }
    </style>
  </defs>
  <g id="Ebene_10" data-name="Ebene 10">
    <rect class="cls-3" width="150" height="150"/>
  </g>
  <g id="lebenslagen">
    <g>
      <path class="cls-2" d="M24.5,102.95c0,1.86-1.51,3.37-3.37,3.37s-3.37-1.51-3.37-3.37,1.51-3.37,3.37-3.37,3.37,1.51,3.37,3.37"/>
      <path class="cls-1" d="M17.51,108.7c-.19-.37-.47-.69-.83-.91-.36-.22-.77-.34-1.18-.34h-6.75c-.6,0-1.17.24-1.59.66-.42.42-.66.99-.66,1.59v5.62h-2.25c-.8,0-1.55.43-1.95,1.12-.4.7-.4,1.55,0,2.25.4.7,1.14,1.12,1.95,1.12h4.5c.6,0,1.17-.24,1.59-.66.42-.42.66-.99.66-1.59v-5.62h3.08l1.63,3.25c.21.43.55.79.98,1.01.43.22.91.31,1.39.24.71-.11,1.33-.55,1.66-1.19.33-.64.34-1.4.02-2.04l-2.24-4.52Z"/>
      <path class="cls-2" d="M45.87,62.45c0,3.11-2.52,5.62-5.62,5.62s-5.62-2.52-5.62-5.62,2.52-5.62,5.62-5.62,5.62,2.52,5.62,5.62"/>
      <path class="cls-1" d="M47.66,86.18l-2.65-.82-4.98-10.38c-.3-.62-.86-1.06-1.53-1.21-.67-.15-1.37,0-1.9.44-.53.43-.85,1.07-.85,1.76v41.63c0,.8.43,1.55,1.12,1.95.7.4,1.55.4,2.25,0,.7-.4,1.12-1.14,1.12-1.95v-11.56l4.13,2.91v9c0,.8.43,1.55,1.12,1.95.7.4,1.55.4,2.25,0,.7-.4,1.12-1.14,1.12-1.95v-10.17c0-.73-.36-1.41-.96-1.83l-7.67-5.41v-14.63l1.12,2.37c.28.54.77.95,1.35,1.12l3.59,1.12c.76.21,1.57,0,2.14-.53.57-.54.82-1.34.65-2.11-.17-.77-.72-1.4-1.47-1.65l.02-.03Z"/>
      <path class="cls-1" d="M30.13,77.07c-.6,0-1.17.24-1.59.66-.42.42-.66.99-.66,1.59v9c0,.8.43,1.55,1.12,1.95.7.4,1.55.4,2.25,0,.7-.4,1.12-1.14,1.12-1.95v-9c0-.6-.24-1.17-.66-1.59-.42-.42-.99-.66-1.59-.66h0Z"/>
      <path class="cls-2" d="M77.5,51.2c0,3.73-3.02,6.75-6.75,6.75s-6.75-3.02-6.75-6.75,3.02-6.75,6.75-6.75,6.75,3.02,6.75,6.75"/>
      <path class="cls-1" d="M75.81,77.14l-2.25-.58-5.3-10.62c-.3-.61-.87-1.05-1.54-1.19-.67-.15-1.36.02-1.89.45-.53.43-.84,1.08-.83,1.76v18.53c-.96.25-1.82.81-2.43,1.6s-.94,1.75-.95,2.75v2.25c0,1,.34,1.96.95,2.75s1.46,1.35,2.43,1.6v21.16c0,.8.43,1.55,1.12,1.95.7.4,1.55.4,2.25,0,.7-.4,1.12-1.14,1.12-1.95v-16.07l4.13,2.91v13.5c0,.8.43,1.55,1.12,1.95.7.4,1.55.4,2.25,0,.7-.4,1.12-1.14,1.12-1.95v-14.67c0-.73-.36-1.41-.96-1.83l-6.86-4.85h2.56c1.19,0,2.34-.47,3.18-1.32.84-.84,1.32-1.99,1.32-3.18v-2.25c0-1.19-.47-2.34-1.32-3.18-.84-.84-1.99-1.32-3.18-1.32h-3.37v-8.85l1.51,3.01c.53,1,1.61,1.12,2.6,1.44.97.41,2.02.6,3.07.56.67-.14,1.23-.57,1.54-1.18.31-.61.33-1.32.05-1.94-.28-.62-.82-1.08-1.48-1.26l.02.03ZM71.88,89.82v2.25h-6.75v-2.25h6.75Z"/>
      <path class="cls-2" d="M112.5,37.7c0,4.35-3.53,7.87-7.87,7.87s-7.87-3.53-7.87-7.87,3.53-7.87,7.87-7.87,7.87,3.53,7.87,7.87"/>
      <path class="cls-1" d="M111.57,69.63c-.07,0-8.14-3.98-8.14-3.98l-2.17-14.89v-.11c-.18-.65-.63-1.19-1.25-1.47-.61-.28-1.32-.26-1.92.03-.6.3-1.04.85-1.19,1.51l-6.75,30.37c-.06.16-.11.32-.13.48v36c0,.8.43,1.55,1.12,1.95.7.4,1.55.4,2.25,0,.7-.4,1.12-1.14,1.12-1.95v-20.57l4.13,2.91v18c0,.8.43,1.55,1.12,1.95.7.4,1.55.4,2.25,0,.7-.4,1.12-1.14,1.12-1.95v-19.17c0-.73-.36-1.41-.96-1.83l-7.67-5.41v-9.69l4.06-18.25.58,3.93c.11.74.57,1.37,1.24,1.7l7.62,3.66v44.72c0,.8.43,1.55,1.12,1.95.7.4,1.55.4,2.25,0,.7-.4,1.12-1.14,1.12-1.95v-46.51c-.11-.58-.44-1.1-.93-1.44h0Z"/>
      <path class="cls-1" d="M141.5,94.32c0-1.19-.47-2.34-1.32-3.18-.84-.84-1.99-1.32-3.18-1.32h-2.25v-15.92h2.62c.8,0,1.55-.43,1.95-1.12.4-.7.4-1.55,0-2.25-.4-.7-1.14-1.12-1.95-1.12h-2.62v-2.72c0-.8-.43-1.55-1.12-1.95-.7-.4-1.55-.4-2.25,0-.7.4-1.12,1.14-1.12,1.95v2.72h-2.62c-.8,0-1.55.43-1.95,1.12-.4.7-.4,1.55,0,2.25.4.7,1.14,1.12,1.95,1.12h2.62v15.92h-2.25c-1.19,0-2.34.47-3.18,1.32-.84.84-1.32,1.99-1.32,3.18v25.5h18v-25.5Z"/>
    </g>
  </g>
</svg>