<?xml version="1.0" encoding="UTF-8"?>
<svg xmlns="http://www.w3.org/2000/svg" viewBox="0 0 150 150">
  <defs>
    <style>
      .cls-1, .cls-2, .cls-3, .cls-4 {
        stroke-width: 0px;
      }

      .cls-2 {
        fill: #fff;
      }

      .cls-3 {
        fill: #f6ae2d;
      }

      .cls-4 {
        fill: #000842;
      }
    </style>
  </defs>
  <g id="Ebene_10" data-name="Ebene 10">
    <rect class="cls-4" width="150" height="150"/>
  </g>
  <g id="leistungen">
    <g>
      <path class="cls-3" d="M138.39,99.51c-1.06-2.27-2.98-4.02-5.33-4.89-2.35-.87-4.94-.78-7.23.24l-27.89,12.28c.05-.35.09-.71.11-1.07,0-2.53-1.01-4.96-2.8-6.76-1.79-1.79-4.22-2.8-6.76-2.8h-22.16c-1.53,0-3.04-.36-4.41-1.05l-11.32-5.72c-2.82-1.65-8.17-1.73-11.33-2.22h0c-.44-1.39-1.31-2.61-2.49-3.47-1.18-.87-2.6-1.33-4.06-1.34h-15.41c-1.83,0-3.59.73-4.88,2.03-1.3,1.3-2.02,3.05-2.03,4.88v32.48c0,1.83.73,3.59,2.03,4.88,1.3,1.3,3.05,2.02,4.88,2.03h15.41c1.26,0,2.49-.35,3.57-1.01,1.07-.66,1.95-1.59,2.53-2.71l28.54,8.68c3.98,1.45,10.1.96,14.29,1.04,3.72,0,7.39-.87,10.73-2.52l19.43-9.67,22.23-10.49c2.29-1.11,4.04-3.09,4.86-5.5.82-2.41.65-5.04-.49-7.32h0Z"/>
      <path class="cls-2" d="M35.01,122.11c0,.61-.24,1.2-.68,1.63-.43.43-1.02.67-1.63.68h-15.41c-.61,0-1.2-.24-1.63-.68s-.67-1.02-.68-1.63v-32.48c0-.61.24-1.2.68-1.63.43-.43,1.02-.67,1.63-.68h15.41c.61,0,1.2.24,1.63.68.43.43.67,1.02.68,1.63v32.48Z"/>
      <path class="cls-2" d="M134.5,105.41h0c-.41,1.21-1.3,2.2-2.45,2.75l-22.27,10.51-19.47,9.69c-2.7,1.34-5.67,2.04-8.68,2.04-3.59-.13-9.54.42-12.95-.84l-29.06-8.84v-28.51c2.37.37,6.81.46,8.9,1.65,4.32,1.87,12.96,7.64,17.81,7.26h22.16c1.77.05,3.38,1.02,4.25,2.56.87,1.54.87,3.42,0,4.96s-2.48,2.51-4.25,2.56h-25.04c-.82,0-1.58.44-1.99,1.15-.41.71-.41,1.59,0,2.3.41.71,1.17,1.15,1.99,1.15h25.04c2.09,0,4.13-.71,5.77-2l33.49-14.75h0c1.21-.49,2.57-.5,3.79-.02,1.22.48,2.21,1.41,2.76,2.6.55,1.19.63,2.54.21,3.78h0Z"/>
      <path class="cls-1" d="M25.48,110.31c-2.2.03-4.23,1.22-5.32,3.13-1.09,1.91-1.09,4.26,0,6.17,1.09,1.91,3.12,3.1,5.32,3.13,2.2-.03,4.23-1.22,5.32-3.13,1.09-1.91,1.09-4.26,0-6.17-1.09-1.91-3.12-3.1-5.32-3.13ZM25.48,118.13c-.87-.02-1.58-.73-1.58-1.61s.7-1.59,1.58-1.61c.87.02,1.58.73,1.58,1.61s-.7,1.59-1.58,1.61Z"/>
      <path class="cls-1" d="M21.53,98.6l.11-4.44h5.3c.82,0,1.58-.44,1.99-1.15.41-.71.41-1.59,0-2.3-.41-.71-1.17-1.15-1.99-1.15h-5.3c-1.25,0-2.45.5-3.34,1.39-.89.89-1.38,2.09-1.38,3.34v4.33c.02.81.46,1.56,1.16,1.96.71.4,1.57.4,2.28,0s1.15-1.15,1.16-1.96h0Z"/>
      <path class="cls-4" d="M131.49,44.75c-.78-.91-1.86-1.5-3.05-1.67l-6.21-.93c-.55-1.73-1.25-3.41-2.09-5.02l3.79-5.11c.71-.97,1.05-2.15.96-3.34-.08-1.2-.6-2.32-1.45-3.16l-4.43-4.45c-.85-.85-1.98-1.37-3.17-1.46-1.2-.08-2.39.26-3.35.98l-5.04,3.75c-1.61-.85-3.3-1.56-5.05-2.1l-.93-6.28c-.18-1.19-.77-2.27-1.69-3.05-.91-.78-2.06-1.21-3.26-1.2h-6.28c-1.2-.01-2.36.42-3.27,1.2-.91.79-1.51,1.87-1.67,3.06l-.93,6.21c-1.74.54-3.41,1.24-5.02,2.08l-5.11-3.78c-.87-.63-1.92-.98-3-.98-.11,0-.24,0-.35.01-1.19.09-2.31.6-3.16,1.45l-4.44,4.44c-.84.85-1.35,1.98-1.44,3.17-.09,1.19.25,2.37.96,3.34l3.75,5.05c-.85,1.61-1.56,3.3-2.11,5.04l-6.27.94c-1.19.17-2.27.77-3.05,1.67s-1.21,2.07-1.2,3.27v6.27c-.01,1.21.42,2.36,1.2,3.27.79.92,1.87,1.51,3.06,1.69l6.21.92c.54,1.74,1.24,3.42,2.08,5.04l-3.78,5.11c-.72.96-1.05,2.14-.97,3.34.09,1.2.6,2.32,1.45,3.16,2.33,2.03,4.92,6.11,7.97,5.92,2.27.3,6.25-3.63,8.02-4.73,1.62.85,3.31,1.55,5.05,2.1l.93,6.28c.18,1.19.78,2.27,1.69,3.05s2.07,1.21,3.27,1.2h6.27c1.2.01,2.36-.43,3.27-1.21.92-.78,1.51-1.86,1.69-3.05l.92-6.21c1.74-.54,3.42-1.25,5.02-2.09l5.11,3.79c.86.63,1.9.97,2.96.97.12,0,.26,0,.38-.01,1.2-.08,2.31-.6,3.16-1.45l4.45-4.43c.85-.84,1.36-1.98,1.46-3.17.08-1.2-.27-2.38-.99-3.35l-3.75-5.04c.85-1.61,1.56-3.3,2.11-5.04l6.28-.94c1.18-.18,2.26-.77,3.04-1.67.78-.92,1.21-2.07,1.21-3.27v-6.28c0-1.2-.43-2.35-1.21-3.27ZM128.09,54.3c0,.19-.14.35-.32.38l-7.38,1.09c-.47.02-.93.19-1.31.47-.38.28-.68.67-.84,1.11-.77,2.58-1.81,5.07-3.09,7.44-.21.72-.06,1.5.41,2.09l4.55,6.11c.12.16.1.37-.02.52l-4.45,4.43c-.14.14-.34.16-.5.05l-5.99-4.46c-.31-.31-.72-.53-1.14-.61-.44-.09-.88-.05-1.3.1-2.27,1.29-4.68,2.3-7.2,2.99-.57.19-1.05.58-1.34,1.1-.37.6-1.21,7.59-1.38,8.41-.03.2-.2.33-.4.33h-6.27c-.2,0-.36-.14-.4-.32l-1.09-7.4c-.02-.47-.19-.93-.47-1.3s-.67-.67-1.1-.83c-2.67-.85-5.28-1.91-7.78-3.19-.62-.03-1.24.15-1.74.5l-6.12,4.57c-.16.11-.37.1-.52-.03l-4.43-4.45c-.15-.12-.17-.34-.05-.5l4.45-5.99c.31-.31.53-.71.62-1.14.08-.44.05-.88-.11-1.29-1.29-2.27-2.29-4.69-2.99-7.21-.18-.56-.56-1.04-1.08-1.33-.63-.38-7.57-1.21-8.42-1.39-.2-.03-.34-.2-.34-.4v-6.27c0-.2.14-.35.33-.38.44-.14,8.08-1.11,8.19-1.27.62-.25,1.1-.76,1.33-1.38.66-2.41,1.62-4.73,2.89-6.9.25-.44.35-.95.29-1.46-.06-.5-.27-.97-.62-1.34l-4.42-5.96c-.11-.16-.1-.37.03-.52l4.44-4.43c.14-.14.34-.16.5-.05l6,4.45c.43.44,1.02.68,1.62.68,2.7-.76,5.12-2.63,7.92-3.1.48-.15.91-.44,1.22-.83.31-.38.49-.87.52-1.37l1.09-7.34c.02-.2.19-.33.38-.33h6.28c.19-.01.35.14.38.32.04.33,1.15,7.93,1.22,7.99.15.56.51,1.04,1.02,1.32,2.54.77,4.99,1.81,7.3,3.11.42.23.89.33,1.36.3.48-.04.93-.22,1.3-.51l6.1-4.56c.07-.05.16-.08.25-.08s.2.04.28.11l4.43,4.45c.07.07.11.17.11.27,0,.08-.02.16-.07.23l-4.45,5.99c-.31.31-.53.71-.61,1.14-.09.43-.06.88.1,1.29,1.29,2.28,2.3,4.7,3,7.22.21.67.72,1.21,1.37,1.47,0,.11,7.79,1.15,8.12,1.25.19.03.33.2.33.38v6.28Z"/>
      <path class="cls-2" d="M128.09,48.02v6.28c0,.19-.14.35-.32.38l-7.38,1.09c-.47.02-.93.19-1.31.47-.38.28-.68.67-.84,1.11-.77,2.58-1.81,5.07-3.09,7.44-.21.72-.06,1.5.41,2.09l4.55,6.11c.12.16.1.37-.02.52l-4.45,4.43c-.14.14-.34.16-.5.05l-5.99-4.46c-.31-.31-.72-.53-1.14-.61-.44-.09-.88-.05-1.3.1-2.27,1.29-4.68,2.3-7.2,2.99-.57.19-1.05.58-1.34,1.1-.37.6-1.21,7.59-1.38,8.41-.03.2-.2.33-.4.33h-6.27c-.2,0-.36-.14-.4-.32l-1.09-7.4c-.02-.47-.19-.93-.47-1.3s-.67-.67-1.1-.83c-2.67-.85-5.28-1.91-7.78-3.19-.62-.03-1.24.15-1.74.5l-6.12,4.57c-.16.11-.37.1-.52-.03l-4.43-4.45c-.15-.12-.17-.34-.05-.5l4.45-5.99c.31-.31.53-.71.62-1.14.08-.44.05-.88-.11-1.29-1.29-2.27-2.29-4.69-2.99-7.21-.18-.56-.56-1.04-1.08-1.33-.63-.38-7.57-1.21-8.42-1.39-.2-.03-.34-.2-.34-.4v-6.27c0-.2.14-.35.33-.38.44-.14,8.08-1.11,8.19-1.27.62-.25,1.1-.76,1.33-1.38.66-2.41,1.62-4.73,2.89-6.9.25-.44.35-.95.29-1.46-.06-.5-.27-.97-.62-1.34l-4.42-5.96c-.11-.16-.1-.37.03-.52l4.44-4.43c.14-.14.34-.16.5-.05l6,4.45c.43.44,1.02.68,1.62.68,2.7-.76,5.12-2.63,7.92-3.1.48-.15.91-.44,1.22-.83.31-.38.49-.87.52-1.37l1.09-7.34c.02-.2.19-.33.38-.33h6.28c.19-.01.35.14.38.32.04.33,1.15,7.93,1.22,7.99.15.56.51,1.04,1.02,1.32,2.54.77,4.99,1.81,7.3,3.11.42.23.89.33,1.36.3.48-.04.93-.22,1.3-.51l6.1-4.56c.07-.05.16-.08.25-.08s.2.04.28.11l4.43,4.45c.07.07.11.17.11.27,0,.08-.02.16-.07.23l-4.45,5.99c-.31.31-.53.71-.61,1.14-.09.43-.06.88.1,1.29,1.29,2.28,2.3,4.7,3,7.22.21.67.72,1.21,1.37,1.47,0,.11,7.79,1.15,8.12,1.25.19.03.33.2.33.38Z"/>
      <path class="cls-2" d="M72.83,51c0,2.7.54,5.36,1.56,7.8,1.01,2.44,2.51,4.7,4.42,6.62,3.83,3.83,9.01,5.98,14.42,5.98s10.6-2.15,14.43-5.98c3.82-3.83,5.97-9.01,5.98-14.42-1.07-27.06-39.75-27.05-40.81,0ZM77.43,51c0-2.09.42-4.15,1.21-6.04.78-1.9,1.95-3.64,3.42-5.13,2.96-2.95,6.98-4.63,11.16-4.63s8.21,1.67,11.17,4.63c2.95,2.96,4.63,6.98,4.63,11.17-.74,20.91-30.86,20.9-31.59,0Z"/>
      <path class="cls-4" d="M109.03,51c-.74,20.91-30.86,20.9-31.59,0,0-2.09.42-4.15,1.21-6.04.78-1.9,1.95-3.64,3.42-5.13,2.96-2.95,6.98-4.63,11.16-4.63s8.21,1.67,11.17,4.63c2.95,2.96,4.63,6.98,4.63,11.17Z"/>
      <path class="cls-3" d="M59.7,88.02c.61.53,1.46.71,2.23.45.77-.25,1.35-.9,1.53-1.69.18-.79-.08-1.62-.67-2.18-20.65-18.15-19.54-52.61,2.41-69.25.63-.52.94-1.32.81-2.13-.12-.8-.66-1.48-1.41-1.79-.75-.31-1.61-.19-2.26.29-24.18,18.34-25.4,56.3-2.65,76.29h0Z"/>
    </g>
  </g>
</svg>